<?xml version="1.0" encoding="UTF-8"?> <svg xmlns="http://www.w3.org/2000/svg" width="379" height="400" viewBox="0 0 379 400" fill="none"> <ellipse cx="179.45" cy="220" rx="179.45" ry="180" fill="#333333"></ellipse> <path d="M343.256 15.0219C295.353 -21.339 218.63 12.3154 212.451 73.0346C209.206 104.767 225.59 133.087 250.07 150.306C246.746 156.229 240.02 168.703 236.931 174.429L251.673 182.431C255.349 176.351 261.175 165.094 264.734 158.818C280.728 166.349 298.716 169.565 316.391 166.859C384.042 154.7 402.343 53.1871 343.256 15.0219ZM273.767 145.521C186.72 111.239 238.964 -14.5532 327.184 25.4948C397.494 64.1699 353.032 175.763 273.767 145.521Z" fill="#CDCDCD"></path> <path d="M252.338 180.666L237.595 172.664C233.568 170.389 229.814 172.115 227.585 176.234L210.144 206.554L244.752 208.437L253.511 194.002C256.287 189.099 258.399 184.471 252.338 180.666Z" fill="white"></path> <path d="M264.499 216.36C253.393 199.925 213.78 202.789 196.3 206.162C192.664 207.143 194.189 212.791 197.865 211.849C200.524 211.261 204.395 210.673 206.037 210.477C218.903 208.711 254.683 208.084 259.923 220.44C262.622 226.559 256.6 231.226 251.477 233.109C248.779 234.168 245.963 234.874 243.109 235.306C241.544 235.423 239.824 235.58 239.159 237.267C237.947 240.052 241.388 241.385 242.405 243.543C245.611 248.446 245.259 256.134 240.371 259.821C239.042 261.233 232.042 262.88 228.562 263.822C224.925 265.116 226.919 269.078 227.975 269.274C231.143 271.392 231.729 277.079 230.204 280.492C227.349 287.709 215.97 287.984 208.657 289.121C199.038 290.259 188.91 289.474 180.463 295.044C166.425 302.928 154.185 313.754 143.431 325.639C140.811 328.267 144.878 332.542 147.576 329.797C160.324 316.343 174.637 302.144 192.625 296.417C202.753 294.887 221.171 296.26 231.651 288.415C237.165 283.551 238.494 274.53 234.701 268.254C245.181 266.842 252.415 257.075 249.835 246.602C249.326 241.542 244.634 240.758 251.008 239.542C261.253 236.718 270.56 227.225 264.499 216.36Z" fill="white"></path> <path d="M155.867 210.908C172.682 196.434 191.608 184.667 214.68 188.237C217.808 188.158 222.696 191.845 224.26 187.53C225.355 181.725 212.021 182.314 208.306 181.882C193.759 181.058 179.76 186.236 167.872 194.434C141.75 211.889 121.885 236.718 99.0088 257.938C97.1318 259.468 94.2381 261.86 96.5843 264.292C99.6345 269.313 117.662 246.838 121.377 244.131C132.6 232.756 143.705 221.263 155.867 210.908Z" fill="white"></path> </svg> 