<?xml version="1.0" encoding="UTF-8"?> <svg xmlns="http://www.w3.org/2000/svg" width="414" height="408" viewBox="0 0 414 408" fill="none"> <ellipse cx="179.296" cy="228" rx="179.296" ry="180" fill="#333333"></ellipse> <path d="M259.558 92.3659C269.601 89.6409 275.935 95.6814 279.509 113.803C284.485 139.054 285.661 149.591 296.79 181.11C286.249 136.829 290.14 104.038 294.528 91.1851C302.219 68.7947 320.947 78.4684 321.536 93.4105C322.893 128.699 323.436 133.831 330.493 177.295C327.009 151.498 328.095 128.109 333.071 108.671C340.038 81.5568 362.748 90.8672 362.793 115.483C362.839 144.641 361.708 182.2 374.329 221.849C388.127 198.414 387.72 185.016 401.065 185.97C420.111 187.332 412.782 212.629 404.187 229.706C371.886 283.525 381.206 303.099 398.442 358.099C372.474 366.955 342.345 369.453 308.778 366.637C299.549 347.653 277.337 278.847 271.728 257.773C268.018 237.972 234.224 104.628 259.558 92.3659Z" fill="#CDCDCD"></path> <path d="M263.946 50.3103C270.505 43.4978 277.065 36.6399 283.625 29.8274C286.61 27.5565 289.777 20.4715 294.03 23.9686C295.296 25.3311 295.341 27.4203 294.03 28.7828C287.47 35.5953 280.91 42.4532 274.351 49.2657C272.496 51.2186 270.596 53.1715 268.741 55.1244C265.665 58.2582 260.824 53.444 263.946 50.3103Z" fill="#333333"></path> <path d="M229.474 39.8191C230.107 30.5995 230.786 21.3345 231.147 12.0695C231.238 9.16281 231.328 6.21073 231.374 3.30406C231.374 -1.10135 238.205 -1.10135 238.159 3.30406C237.978 12.5691 237.481 21.7887 236.848 31.0536C236.169 34.687 237.255 39.047 235.264 42.2261C233.319 44.3607 229.293 42.7711 229.474 39.8191Z" fill="#333333"></path> <path d="M201.562 50.6734C193.871 43.0888 186.135 35.5951 178.354 28.1467C176.001 24.9222 168.13 21.6522 171.703 17.0651C173.106 15.7934 175.096 15.748 176.499 17.0651C184.371 24.468 192.152 31.9163 199.842 39.4555C202.014 41.5901 204.185 43.7246 206.357 45.8592C209.478 48.9021 204.683 53.8071 201.562 50.6734Z" fill="#333333"></path> <path d="M374.42 232.431C373.696 228.525 367.905 220.714 373.47 218.579C379.034 217.625 378.763 227.072 380.935 230.614C382.156 234.838 375.596 236.7 374.42 232.431Z" fill="white"></path> <path d="M128.543 91.8208C128.817 91.8664 129.045 91.9577 128.543 91.8208V91.8208Z" fill="white"></path> <path d="M56.3894 201.048C62.1347 188.241 75.5255 190.739 82.628 200.957C88.7805 208.088 104.795 230.478 112.214 214.991C122.619 187.196 117.371 156.222 114.34 127.428C113.662 119.843 111.4 111.577 111.807 103.221C112.124 92.4114 122.348 81.0118 133.567 86.2802C146.189 93.3652 146.596 110.487 150.351 123.022C150.215 117.572 149.853 112.077 149.491 106.627C149.084 94.5006 144.47 76.8335 159.217 71.5652C180.163 66.9327 185.139 99.1785 187.989 114.03C187.492 101.631 188.17 77.1514 206.583 82.011C224.995 88.9143 219.702 146.821 219.611 164.306C216.942 195.371 212.871 264.45 186.497 283.071C178.761 311.047 168.808 338.706 154.558 364.049C152.386 367.727 146.46 364.503 148.677 360.597C161.615 337.934 170.572 313.227 177.992 288.294C178.173 287.749 178.308 287.204 178.444 286.659C170.346 289.111 161.57 288.475 153.517 286.068C149.265 284.842 151.12 278.347 155.327 279.483C166.637 283.116 181.113 282.026 188.804 271.898C211.514 239.38 218.978 134.195 209.568 95.9085C205.18 81.466 195.228 88.7781 195.047 100.632C194.504 121.206 195.273 142.097 189.075 161.99C187.356 165.487 186.677 175.706 181.385 174.525C176.544 172.572 180.434 166.486 180.434 162.762C180.796 160.536 181.158 158.22 181.43 156.04C184.008 134.967 183.104 113.076 175.911 92.9564C173.92 87.5973 171.522 81.3298 166.637 78.5593C157.725 74.6081 154.015 85.3264 155.463 92.5023C157.182 115.165 158.222 137.874 154.829 160.4C153.834 163.806 155.372 170.574 150.532 170.982C148.858 170.891 146.958 169.484 147.139 167.576C147.636 162.762 147.817 157.948 147.682 153.134C147.048 135.058 142.705 117.164 137.005 99.9506C133.838 92.0027 125.967 87.8243 120.764 96.4989C116.829 103.221 119.136 111.169 119.995 118.39C124.7 142.642 137.096 265.858 85.6589 214.946C80.6374 209.814 76.6112 202.093 70.5492 199.231C56.1632 197.96 64.4872 217.625 69.5087 224.619C77.6517 236.428 87.559 247.146 98.2354 256.638C104.795 262.134 112.214 266.584 120.041 269.991C123.433 272.307 134.472 272.579 132.979 277.893C132.436 279.619 130.626 280.8 128.817 280.255C101.04 271.898 116.195 265.858 103.393 298.921C96.7425 317.86 88.8709 336.344 79.8684 354.284C79.0541 356.646 76.7921 359.28 74.123 357.645C72.4944 356.6 72.0421 354.693 72.9016 352.967C76.9279 345.11 80.7279 337.116 84.2565 329.032C91.4043 312.455 98.0996 295.56 102.624 278.075C103.347 275.214 103.935 272.307 104.388 269.4C99.2759 266.221 94.4353 262.542 89.9566 258.455C76.7469 244.875 51.5488 221.758 56.3894 201.048Z" fill="white"></path> <path d="M104.838 220.35C104.792 220.305 104.838 220.305 105.203 220.396C105.111 220.396 104.974 220.396 104.838 220.35Z" fill="white"></path> <path d="M73.0376 200.822C72.9463 200.776 72.7638 200.639 72.7181 200.594C72.8094 200.639 72.9007 200.731 73.0376 200.822Z" fill="white"></path> <path d="M71.1373 199.596C71.2742 199.687 70.9091 199.596 70.7721 199.413C70.8634 199.504 71.0003 199.55 71.1373 199.596Z" fill="white"></path> <path d="M69.7808 199.141C69.7351 199.186 69.4613 199.141 69.4156 199.141C69.5526 199.141 69.6895 199.141 69.7808 199.141Z" fill="white"></path> <path d="M168.04 79.6051C167.994 79.5595 167.857 79.4682 167.857 79.377C167.903 79.4226 167.948 79.5139 168.04 79.6051Z" fill="white"></path> <path d="M200.973 88.3241C201.109 88.2787 200.927 88.4604 200.564 88.5058C200.7 88.415 200.837 88.3695 200.973 88.3241Z" fill="white"></path> </svg> 