<?xml version="1.0" encoding="UTF-8"?> <!-- Svg Vector Icons : http://www.onlinewebfonts.com/icon --> <svg xmlns="http://www.w3.org/2000/svg" xmlns:xlink="http://www.w3.org/1999/xlink" x="0px" y="0px" viewBox="0 0 1000 1000" xml:space="preserve"> <metadata> Svg Vector Icons : http://www.onlinewebfonts.com/icon </metadata> <g><path d="M804.7,294.4h-125v-93.8c0-30.8-25-55.8-55.8-55.8H65.8c-30.8,0-55.8,25-55.8,55.8v346c0,30.8,25,60.3,55.8,60.3h26.8v62.5c0,30.8,25,55.8,55.8,55.8h51c-1.1,6.4-1.8,12.9-1.8,19.6c0,60.9,49.4,110.3,110.3,110.3c60.9,0,110.3-49.4,110.3-110.3c0-6.7-0.7-13.2-1.8-19.6h268.4c-1.2,6.4-1.8,12.9-1.8,19.6c0,60.9,49.4,110.3,110.3,110.3c60.9,0,110.3-49.4,110.3-110.3c0-6.7-0.7-13.2-1.8-19.6h32.6c30.8,0,55.8-25,55.8-55.8V557.8C990,527,835.5,294.4,804.7,294.4z M65.8,557.8V200.7h560.3L626,508.7c0,13.3,3.7,49.1-23.1,49.1S65.8,557.8,65.8,557.8z M306.9,801.2c-30.8,0-55.8-25-55.8-55.8c0-30.8,25-55.8,55.8-55.8c30.8,0,55.8,25,55.8,55.8C362.7,776.2,337.7,801.2,306.9,801.2z M793.6,801.2c-30.8,0-55.8-25-55.8-55.8c0-30.8,25-55.8,55.8-55.8s55.8,25,55.8,55.8C849.4,776.2,824.4,801.2,793.6,801.2z M898.5,676.1h-19.2c-20.2-25.3-51.3-41.6-86.2-41.6c-34.9,0-66,16.3-86.2,41.6H394c-20.2-25.3-51.3-41.6-86.2-41.6c-34.9,0-66,16.3-86.2,41.6h-10.7c-30.8,0-55.8-9.4-55.8-40.2v-24.8l466.6-2c25.3,0,46.5-17,53.3-40.1c3-6.9,4.7-14.4,4.7-22.4V339.1h91.5c30.8,0,163,210.3,163,241.1C934.2,580.2,947.2,676.1,898.5,676.1z"></path></g> </svg> 