<?xml version="1.0" encoding="UTF-8"?> <svg xmlns="http://www.w3.org/2000/svg" width="394" height="456" viewBox="0 0 394 456" fill="none"> <ellipse cx="179.87" cy="276" rx="179.87" ry="180" fill="#333333"></ellipse> <path d="M279.188 91.3281C284.128 91.1895 288.653 88.3251 290.823 83.8898C300.102 63.2379 314.091 31.775 330.388 61.2513C334.636 69.2902 337.637 78.3918 341.423 86.6618C342.438 89.8959 347.332 91.9749 350.564 91.4205C395.854 89.6187 411.505 97.057 368.107 127.781C361.552 132.447 351.903 139.008 354.719 149.957C358.043 162.847 374.986 192.416 367.138 200.409C360.398 207.246 348.579 197.406 344.054 194.079C339.576 190.706 321.801 172.734 315.061 169.87C307.535 166.636 297.286 177.585 288.007 184.516C278.865 191.353 251.488 208.725 248.487 190.198C246.871 175.506 277.757 142.103 264.415 132.401C214.692 103.156 216.17 89.9883 279.188 91.3281Z" fill="#CDCDCD"></path> <path d="M279.096 42.863C271.802 37.8271 265.154 33.4842 259.337 28.2635C256.197 25.0757 251.257 30.0192 254.443 33.1608C260.999 39.0284 268.385 43.8333 275.634 48.823C279.419 51.133 282.928 45.1269 279.096 42.863Z" fill="#333333"></path> <path d="M318.708 22.3959C318.385 16.0664 318.154 9.69066 317.831 3.36112C317.831 -1.12037 310.86 -1.12037 310.906 3.36112C311.229 9.69066 311.46 16.0664 311.783 22.3959C311.875 24.1978 313.306 25.9534 315.245 25.861C317.046 25.8148 318.8 24.3364 318.708 22.3959Z" fill="#333333"></path> <path d="M358.089 42.6784C365.06 38.4741 372.124 34.5008 378.495 29.4187C380.665 27.432 379.003 23.3663 376.048 23.5049C374.802 23.5049 373.878 24.2903 372.909 25.0758C372.309 25.5378 373.555 24.6137 372.909 25.0758C367.138 29.5111 360.767 33.0223 354.58 36.7646C350.702 38.9361 354.211 44.9422 358.089 42.6784Z" fill="#333333"></path> <path d="M306.012 311.198C295.624 305.931 304.35 310.736 312.383 300.895C321.709 289.807 314.091 275.947 300.98 273.175C289.761 271.049 298.302 271.927 302.272 266.198C308.228 258.483 303.657 246.932 296.455 241.666C287.222 236.075 275.357 236.168 264.83 236.029C252.642 236.352 240.731 239.356 228.912 242.081C223.556 243.236 220.694 243.929 215.154 243.56C184.822 238.293 219.217 175.644 185.56 169.13C171.849 168.206 163.815 182.159 161.415 193.94C156.706 213.252 161.091 235.798 145.441 250.906C142.624 253.308 133.899 255.341 128.959 257.004C106.798 264.027 84.453 270.356 62.3849 277.656C58.1836 278.811 59.8456 285.603 64.2316 284.355C75.3118 280.659 86.4844 277.286 97.657 273.914C113.031 269.155 128.497 264.627 143.732 259.592C170.371 246.886 161.692 211.589 170.002 189.227C172.218 182.667 177.666 175.413 185.376 176.014C192.393 176.846 194.332 188.165 194.886 191.907C196.087 202.071 193.778 212.189 194.563 222.4C194.332 239.217 204.581 253.632 222.725 250.213C234.314 247.81 219.678 251.876 217.693 263.103C214.6 272.112 221.248 281.352 230.158 283.2C241.192 283.847 234.221 282.553 231.728 291.563C225.495 316.003 252.965 312.63 244.701 315.633C228.404 325.105 236.899 342.291 252.457 346.265C225.172 350.885 198.072 356.66 171.202 363.174C143.548 369.873 116.078 377.358 88.6543 384.889C84.4069 385.951 86.1151 392.835 90.501 391.588C141.101 377.635 191.885 364.098 243.547 354.858C256.52 352.502 269.539 350.376 282.559 348.482C292.762 347.327 304.396 345.572 310.767 336.655C316.446 328.57 313.722 316.835 306.012 311.198ZM179.789 177.077C179.651 177.123 179.559 177.169 179.789 177.077V177.077ZM235.745 276.547C219.355 277.102 222.495 260.839 231.22 255.526C239.069 249.289 249.133 248.087 258.69 246.517C270.093 245.5 287.822 239.956 295.763 250.86C304.719 263.842 286.76 268.185 277.342 270.726C263.722 273.96 249.734 275.669 235.745 276.547ZM243.501 306.301C234.683 303.205 237.545 291.054 242.301 287.589C247.656 282.507 256.474 282.184 263.676 280.428C274.156 278.673 281.358 277.055 292.9 278.534C318.8 282.045 312.152 300.895 290.5 304.222C283.805 305.931 276.926 306.486 270.047 306.901C261.275 307.132 251.996 309.211 243.501 306.301ZM303.242 334.807C293.085 342.615 275.495 342.522 263.168 341.598C253.381 340.859 234.821 332.589 246.409 322.748C256.289 315.633 296.409 308.38 304.396 319.283C307.859 323.903 307.859 330.972 303.242 334.807Z" fill="white"></path> </svg> 