<?xml version="1.0" encoding="UTF-8"?> <svg xmlns="http://www.w3.org/2000/svg" width="134" height="172" viewBox="0 0 134 172" fill="none"> <mask id="path-1-inside-1_312_682" fill="white"> <path fill-rule="evenodd" clip-rule="evenodd" d="M64.1902 170.163C65.7287 171.784 68.2714 171.784 69.8099 170.163C82.518 156.776 134 100.517 134 67.7283C134 30.323 104.003 0 67.0001 0C29.9969 0 0 30.323 0 67.7283C0 100.517 51.4822 156.776 64.1902 170.163ZM67.0001 83.7487C76.2509 83.7487 83.7501 76.2495 83.7501 66.9987C83.7501 57.748 76.2509 50.2487 67.0001 50.2487C57.7493 50.2487 50.2501 57.748 50.2501 66.9987C50.2501 76.2495 57.7493 83.7487 67.0001 83.7487Z"></path> </mask> <path d="M69.8099 170.163L75.6215 175.68L69.8099 170.163ZM64.1902 170.163L70.0017 164.647L64.1902 170.163ZM125.987 67.7283C125.987 74.0739 123.417 82.4046 118.584 92.113C113.833 101.657 107.28 111.782 100.195 121.501C86.0332 140.931 70.256 158.055 63.9984 164.647L75.6215 175.68C82.0719 168.885 98.3898 151.185 113.146 130.941C120.52 120.824 127.632 109.899 132.931 99.2548C138.148 88.7745 142.013 77.7771 142.013 67.7283H125.987ZM67.0001 8.01288C99.4963 8.01288 125.987 34.6665 125.987 67.7283H142.013C142.013 25.9795 108.51 -8.01288 67.0001 -8.01288V8.01288ZM8.01288 67.7283C8.01288 34.6665 34.5038 8.01288 67.0001 8.01288V-8.01288C25.4901 -8.01288 -8.01288 25.9795 -8.01288 67.7283H8.01288ZM70.0017 164.647C63.7442 158.055 47.9669 140.931 33.8049 121.501C26.7201 111.782 20.1671 101.657 15.4159 92.1131C10.583 82.4046 8.01288 74.0739 8.01288 67.7283H-8.01288C-8.01288 77.7771 -4.14771 88.7745 1.06943 99.2548C6.36823 109.899 13.48 120.824 20.8543 130.941C35.6103 151.185 51.9282 168.885 58.3786 175.68L70.0017 164.647ZM75.7372 66.9987C75.7372 71.8241 71.8255 75.7359 67.0001 75.7359V91.7616C80.6763 91.7616 91.763 80.6749 91.763 66.9987H75.7372ZM67.0001 58.2616C71.8255 58.2616 75.7372 62.1733 75.7372 66.9987H91.763C91.763 53.3226 80.6763 42.2358 67.0001 42.2358V58.2616ZM58.263 66.9987C58.263 62.1733 62.1747 58.2616 67.0001 58.2616V42.2358C53.3239 42.2358 42.2372 53.3226 42.2372 66.9987H58.263ZM67.0001 75.7359C62.1747 75.7359 58.263 71.8241 58.263 66.9987H42.2372C42.2372 80.6749 53.3239 91.7616 67.0001 91.7616V75.7359ZM63.9984 164.647C65.6193 162.939 68.3808 162.939 70.0017 164.647L58.3786 175.68C63.0767 180.629 70.9235 180.629 75.6215 175.68L63.9984 164.647Z" fill="#333333" mask="url(#path-1-inside-1_312_682)"></path> </svg> 