<svg xmlns="http://www.w3.org/2000/svg" viewBox="0 0 71.33 71.34"><defs><style>.cls-1{fill:#4d4e50;}</style></defs><title>Ресурс 8</title><g id="Слой_2" data-name="Слой 2"><g id="Object"><path class="cls-1" d="M14.44,35.67A21.23,21.23,0,1,0,35.67,14.44,21.26,21.26,0,0,0,14.44,35.67Zm36-1.29a14.85,14.85,0,1,1-16.08-13.5A14.84,14.84,0,0,1,50.46,34.38Z"/><path class="cls-1" d="M64.78,47.4l3.51-.13a2.17,2.17,0,0,0,1.87-1.5l1.16-5.55a2.17,2.17,0,0,0-1.13-2.12L67,36.57a2.66,2.66,0,0,1-1.35-2.14s0-.41-.09-1.37l0-.33c0-.36.48-1,1.17-1.45l3-1.88a2.16,2.16,0,0,0,.88-2.23l-1.76-5.39a2.16,2.16,0,0,0-2-1.27l-3.52.25a2.49,2.49,0,0,1-2.15-1c-.37-.61-1.13-2.72-.75-3.44L62,13.22a2.16,2.16,0,0,0-.36-2.37L57.43,7.07A2.15,2.15,0,0,0,55,7L52.12,9a2.52,2.52,0,0,1-2.35.21c-.62-.34-2.34-1.79-2.37-2.61l-.14-3.51a2.16,2.16,0,0,0-1.49-1.88L40.22,0A2.15,2.15,0,0,0,38.1,1.14L36.57,4.3a2.65,2.65,0,0,1-2.14,1.36s-.41,0-1.37.09l-.33,0c-.36,0-1-.48-1.45-1.18l-1.87-3A2.17,2.17,0,0,0,27.17.75L21.78,2.51a2.15,2.15,0,0,0-1.27,2l.25,3.52a2.53,2.53,0,0,1-1,2.15c-.61.37-2.71,1.13-3.44.75L13.22,9.32a2.17,2.17,0,0,0-2.37.35L7.07,13.9A2.16,2.16,0,0,0,7,16.3l2,2.91a2.51,2.51,0,0,1,.21,2.36c-.34.62-1.79,2.33-2.61,2.37l-3.51.13a2.18,2.18,0,0,0-1.88,1.49L0,31.12a2.16,2.16,0,0,0,1.12,2.12L4.3,34.77a2.65,2.65,0,0,1,1.36,2.14s0,.41.09,1.36l0,.34c0,.36-.48,1-1.18,1.44l-3,1.88a2.16,2.16,0,0,0-.87,2.23l1.76,5.39a2.16,2.16,0,0,0,2,1.28l3.51-.26a2.53,2.53,0,0,1,2.16,1c.36.61,1.12,2.72.74,3.44L9.32,58.11a2.17,2.17,0,0,0,.35,2.37l4.23,3.79a2.2,2.2,0,0,0,2.4.09l2.91-2a2.48,2.48,0,0,1,2.36-.21c.61.34,2.33,1.79,2.36,2.61l.14,3.51a2.17,2.17,0,0,0,1.49,1.88l5.56,1.15a2.17,2.17,0,0,0,2.12-1.12L34.77,67a2.66,2.66,0,0,1,2.14-1.35s.41,0,1.36-.09l.33,0c.36,0,1,.48,1.45,1.17l1.88,3a2.18,2.18,0,0,0,2.23.88l5.39-1.77a2.16,2.16,0,0,0,1.28-2l-.26-3.52a2.53,2.53,0,0,1,1-2.15c.6-.37,2.71-1.13,3.43-.75L58.12,62a2.16,2.16,0,0,0,2.37-.36l3.78-4.23A2.15,2.15,0,0,0,64.36,55l-2-2.91a2.54,2.54,0,0,1-.22-2.36C62.5,49.15,64,47.44,64.78,47.4ZM35.67,59.86A24.19,24.19,0,1,1,59.86,35.67,24.22,24.22,0,0,1,35.67,59.86Z"/></g></g></svg>