<svg xmlns="http://www.w3.org/2000/svg" viewBox="0 0 56.33 70.75"><defs><style>.cls-1{fill:#4d4e50;}</style></defs><title>Ресурс 6</title><g id="Слой_2" data-name="Слой 2"><g id="Object"><path class="cls-1" d="M43.91,37.85l-.56.5-.59.49c-.41.32-.82.64-1.25.94L32.63,58,30.86,47.51l2.63-4.22-1,.19a20.89,20.89,0,0,1-2.52.3c-.47,0-.94,0-1.42,0a22.53,22.53,0,0,1-5.29-.63L26,47.51,24.29,58.2,14.46,38.88c-.45-.36-.89-.74-1.31-1.13L13,37.9C-.19,49.29,0,69.2,0,70v.71H56.33l0-.75C55.37,47,46.17,39.38,43.91,37.85Z"/><path class="cls-1" d="M28.58,0A21.14,21.14,0,1,0,49.72,21.14,21.17,21.17,0,0,0,28.58,0Z"/></g></g></svg>