<svg xmlns="http://www.w3.org/2000/svg" viewBox="0 0 55.08 63.1"><defs><style>.cls-1{fill:#4d4e50;}</style></defs><title>Ресурс 7</title><g id="Слой_2" data-name="Слой 2"><g id="Object"><path class="cls-1" d="M51.87.74A5.94,5.94,0,0,0,49.58,0L49,0H9.56A6.13,6.13,0,0,0,3.44,6.12V9.18H1.12A1.12,1.12,0,0,0,0,10.3v5.62A1.12,1.12,0,0,0,1.12,17H3.44v4.23H1.12A1.12,1.12,0,0,0,0,22.39V28a1.12,1.12,0,0,0,1.12,1.12H3.44v4.23H1.12A1.12,1.12,0,0,0,0,34.48V40.1a1.12,1.12,0,0,0,1.12,1.12H3.44v4.22H1.12A1.13,1.13,0,0,0,0,46.57v5.62a1.12,1.12,0,0,0,1.12,1.12H3.44V57A6.12,6.12,0,0,0,9.56,63.1H49q.31,0,.63,0A6.13,6.13,0,0,0,55.08,57V6.12a6.09,6.09,0,0,0-1.8-4.33A6,6,0,0,0,51.87.74ZM44.59,13a1.17,1.17,0,0,0-1-.4,1.34,1.34,0,0,0-1,.39l-4.49,4.52,0-15.23H49l0,15.26Z"/></g></g></svg>