<svg xmlns="http://www.w3.org/2000/svg" viewBox="0 0 78.85 70.83"><defs><style>.cls-1{fill:#4d4e50;}</style></defs><title>Ресурс 5</title><g id="Слой_2" data-name="Слой 2"><g id="Object"><path class="cls-1" d="M20.38,29.87H3.62a3.38,3.38,0,0,0-3.44,3.8L0,66.58a1.42,1.42,0,0,0,0,.29,4.68,4.68,0,0,0,4.5,4H25.9a3.37,3.37,0,0,0,3.44-3.68L24.7,32.87l-.07,0A4.7,4.7,0,0,0,20.38,29.87Z"/><path class="cls-1" d="M78.81,44.08a7.88,7.88,0,0,0-3.11-5.62,5.05,5.05,0,0,0,2.13-3.77,10.74,10.74,0,0,0-2.62-8A8.57,8.57,0,0,0,68.72,24H53.47c0-2.2,0-5.67.13-8.74.23-4.43-2.25-9.84-4.7-12.68A6.43,6.43,0,0,0,45,.08,10.86,10.86,0,0,0,43.73,0c-2.82,0-6.14,1.12-6.79,3.59A7,7,0,0,0,37.21,7a14.43,14.43,0,0,1,.35,6.33c-.83,4.68-7.91,16-10.2,18.08l4.77,35.27c3.14,1.22,10.4,3.87,14.22,3.87H65.42c1.3,0,5.64-.28,6.94-3.93a6.43,6.43,0,0,0-.22-4.83c0-.14,0-.26,0-.33s0-.07,0-.1a5.56,5.56,0,0,0,4.33-4.57,7.63,7.63,0,0,0-1.21-6C77.76,49.62,79.08,47.26,78.81,44.08Z"/></g></g></svg>