<?xml version="1.0" encoding="UTF-8"?> <svg xmlns="http://www.w3.org/2000/svg" width="40" height="40" viewBox="0 0 40 40" fill="none"> <path d="M38.5683 30.7464L30.7429 25.5277C29.7498 24.8708 28.4187 25.087 27.6845 26.0245L25.405 28.9553C25.1121 29.3415 24.5796 29.4536 24.1558 29.2181L23.7222 28.9791C22.2848 28.1956 20.4963 27.2202 16.8929 23.6155C13.2895 20.0108 12.3121 18.221 11.5286 16.7862L11.2909 16.3526C11.0522 15.9289 11.1621 15.3941 11.5486 15.0989L14.4774 12.8201C15.4145 12.0858 15.631 10.7551 14.9748 9.76169L9.75617 1.93631C9.08368 0.924749 7.73447 0.621083 6.69339 1.24691L3.4211 3.21258C2.39293 3.81704 1.6386 4.79599 1.31628 5.94428C0.13794 10.2377 1.0244 17.6475 11.9397 28.5642C20.6226 37.2464 27.0867 39.5813 31.5296 39.5813C32.5521 39.5856 33.5706 39.4526 34.5577 39.1857C35.7062 38.8638 36.6853 38.1094 37.2894 37.0809L39.2571 33.8106C39.8838 32.7693 39.5803 31.4192 38.5683 30.7464ZM38.1469 33.1495L36.1838 36.4218C35.75 37.1641 35.0458 37.7099 34.2187 37.9449C30.2551 39.0331 23.3305 38.1317 12.8513 27.6526C2.37217 17.1734 1.47091 10.2494 2.55911 6.28517C2.79437 5.45707 3.34084 4.75197 4.08408 4.31754L7.35636 2.35444C7.80809 2.08263 8.39367 2.21438 8.68549 2.65334L11.5203 6.90941L13.8997 10.478C14.1846 10.9089 14.091 11.4864 13.6845 11.8053L10.755 14.084C9.86345 14.7657 9.60886 15.9992 10.1578 16.9782L10.3904 17.4008C11.2138 18.911 12.2375 20.7897 15.975 24.5265C19.7124 28.2633 21.5905 29.2871 23.1 30.1104L23.5232 30.3436C24.5021 30.8925 25.7357 30.6379 26.4174 29.7464L28.6961 26.8169C29.015 26.4106 29.5923 26.3171 30.0234 26.6017L37.8481 31.8204C38.2873 32.112 38.4191 32.6978 38.1469 33.1495Z" fill="#333333"></path> </svg> 