<?xml version="1.0" encoding="UTF-8"?> <svg xmlns="http://www.w3.org/2000/svg" width="84" height="73" viewBox="0 0 84 73" fill="none"> <circle cx="48" cy="43" r="30" fill="white"></circle> <path d="M44.1525 31.8325C40.5913 31.7362 34.0813 31.6225 30.6075 31.6137C30.0563 29.6187 29.085 27.8075 27.4925 26.1975C26.5563 25.2525 23.8263 22.855 18.7425 22.855C15.26 22.855 10.1238 24.8412 8.91626 29.7587C14.1663 29.9687 18.9788 30.3012 18.9788 30.3012C23.0388 39.1737 23.6513 35 17.1675 42.2537C17.1675 42.2537 12.0313 41.7812 8.57501 41.6237C9.08251 43.6887 11.3488 45.815 12.985 46.8387C18.7688 50.8462 27.4663 48.2825 30.0388 41.7462C33.9588 41.7287 41.1688 41.7112 44.31 41.685C44.3188 41.685 44.1525 31.8325 44.1525 31.8325Z" fill="#454552"></path> <path d="M71.7413 32.165C70.0438 32.0338 64.4088 31.9638 62.7113 31.955L61.3813 42C64.4263 41.93 66.9288 42.21 70.7 41.9738C76.1775 41.6325 77.3588 32.6025 71.7413 32.165ZM71.155 38.2288C69.9475 39.41 67.4363 38.2463 67.9438 36.4788C69.5188 33.5825 72.9838 35.91 71.155 38.2288Z" fill="#454552"></path> <path d="M62.4663 15.6013C58.975 15.1988 57.47 21.8488 56.5775 24.6138C56.14 19.9587 54.8363 14.6125 50.7675 11.8125C49.4725 10.9812 47.7313 11.4625 46.9613 12.775C45.4738 15.4612 47.2063 18.8913 47.635 21.7088C48.9563 26.8013 47.6875 21.9188 43.855 21.4813C38.0013 20.5188 32.3663 25.3663 32.4188 31.2988C32.4188 32.1388 33.7225 32.1475 33.7313 31.2988C33.8013 28.0875 35.5688 24.8938 38.5788 23.5988C45.64 20.5275 48.7988 25.5763 49.6038 32.1213C49.7175 32.8475 50.9775 32.6813 50.89 31.9463C50.3738 26.88 48.9563 21.98 47.9238 17.0013C47.4863 15.5225 47.4075 12.4512 49.6388 12.7487C50.8113 13.1512 51.5725 14.2712 52.3075 15.2162C55.3788 19.7137 55.4575 25.4188 55.4925 30.6775C55.4925 31.0363 55.79 31.3338 56.1488 31.3338C56.5338 31.3338 56.77 31.0275 56.805 30.6775C57.2338 26.705 58.1788 22.7413 60.0163 19.18C61.495 16.0125 63.9363 16.17 64.0325 19.8625C61.285 37.1088 59.4625 53.5525 58.5 71C58.5 71 59.5 71 60 70.5C60.8662 55.4412 62.02 41.8688 64.2513 26.95C64.4963 23.59 67.3138 16.1613 62.4663 15.6013Z" fill="#333333"></path> <path d="M44.5988 34.2213C44.45 32.55 44.1788 30.7563 43.1288 29.4C41.8688 27.7375 39.83 28.9538 39.1738 30.52C38.1413 32.3225 39.6813 32.7513 40.0838 31.8063C41.5275 27.8425 42.9363 31.0275 43.1988 33.425C43.3388 34.5275 43.33 35.63 43.3475 36.7413C43.3563 38.9463 43.4788 42.1313 42.3588 43.68C40.9938 45.1763 39.1825 43.295 39.34 41.7463C39.3488 40.8975 38.0275 40.8975 38.0275 41.7463C37.9925 42.9888 38.57 44.2225 39.5763 44.9575C40.285 45.5 41.2388 45.6838 42.0875 45.4038C45.535 44.1 44.5463 37.2488 44.5988 34.2213Z" fill="#333333"></path> <path d="M38.8063 52.3425C35.5775 50.9513 33.67 47.565 33.3025 44.275C33.2325 43.7675 33.1538 42.6912 33.1625 42C33.1713 41.16 31.85 41.1425 31.85 42C31.745 46.4537 33.635 51.2662 37.8175 53.3137C37.8088 59.2025 37.3275 65.0825 37.3363 70.9713C37.3275 71.8025 38.6575 71.8288 38.6488 70.9713C38.6138 68.8275 38.7188 66.675 38.7975 64.5313C38.9288 60.655 39.1388 56.7875 39.1388 52.9113C39.13 52.6925 39.0163 52.4388 38.8063 52.3425Z" fill="#333333"></path> </svg> 